<svg xmlns="http://www.w3.org/2000/svg" width="28" height="28" viewBox="0 0 28 28"><g><g><path fill="#f2f3f3" d="M6.726 13.8c0-3.914 3.269-7.099 7.286-7.099 4.018 0 7.287 3.185 7.287 7.1 0 3.914-3.27 7.1-7.287 7.1zm13.078-7.28c0-.93.756-1.687 1.687-1.687.93 0 1.686.757 1.686 1.687s-.756 1.686-1.686 1.686zm-10 7.28c0 2.261 1.891 4.101 4.213 4.101 2.323 0 4.212-1.84 4.212-4.1s-1.89-4.1-4.212-4.1zM7.064 28A7.07 7.07 0 0 1 0 20.937V7.063A7.071 7.071 0 0 1 7.063 0h13.874A7.07 7.07 0 0 1 28 7.063v13.874A7.07 7.07 0 0 1 20.937 28zm-4.017-7.071a4.02 4.02 0 0 0 4.014 4.014H20.93a4.02 4.02 0 0 0 4.014-4.014V7.062a4.02 4.02 0 0 0-4.014-4.015H7.06a4.019 4.019 0 0 0-4.014 4.015z"/></g></g></svg>