<svg xmlns="http://www.w3.org/2000/svg" width="28" height="28" viewBox="0 0 28 28"><g><g><path fill="#fff" d="M28 13.885c-.003 7.65-6.258 13.874-13.941 13.874h-.006c-2.333 0-4.626-.583-6.662-1.688L0 28l1.978-7.19a13.8 13.8 0 0 1-1.861-6.936C.12 6.224 6.374 0 14.058 0c3.73.001 7.23 1.446 9.862 4.069zm-2.354.004a11.443 11.443 0 0 0-3.39-8.162 11.534 11.534 0 0 0-8.193-3.384c-6.391 0-11.59 5.176-11.592 11.537-.001 2.18.611 4.303 1.771 6.14l.276.436-1.17 4.257 4.385-1.145.423.25a11.608 11.608 0 0 0 5.898 1.608h.005l5.212-5.19c.658-.301 1.404-.835 1.608-1.403.035-.1.067-.196.094-.291zm-5.231 2.89c-.349-.173-2.061-1.012-2.38-1.128-.32-.115-.552-.173-.784.174-.233.347-.9 1.128-1.104 1.36-.203.23-.406.26-.754.086-.349-.174-1.471-.54-2.802-1.72-1.035-.92-1.734-2.055-1.937-2.403-.204-.347-.022-.534.152-.707.157-.155.349-.405.523-.607.174-.203.232-.348.348-.579.116-.231.058-.434-.029-.607-.087-.174-.784-1.88-1.074-2.574-.283-.676-.57-.585-.784-.595-.203-.01-.435-.013-.667-.013-.233 0-.61.087-.93.434-.319.347-1.218 1.186-1.218 2.892 0 1.707 1.248 3.355 1.422 3.587.174.231 2.456 3.733 5.95 5.234.832.358 1.48.571 1.987.73.834.265 1.594.227 2.194.138.2-.03.463-.116.743-.244l1.702-1.695c.195-.68.186-1.231.11-1.358z"/></g></g></svg>